<svg xmlns="http://www.w3.org/2000/svg" width="20" height="22" viewBox="0 0 20 22">
  <path id="share-2" d="M18,15a4.01,4.01,0,0,0-2.8,1.2L9.9,13.1c0-.4.1-.7.1-1.1a4.253,4.253,0,0,0-.2-1.1l5.3-3.1A4.454,4.454,0,0,0,18,9a4,4,0,1,0-4-4,4.253,4.253,0,0,0,.2,1.1L8.8,9.2A4.01,4.01,0,0,0,6,8a4,4,0,0,0,0,8,4.01,4.01,0,0,0,2.8-1.2l5.3,3.1c0,.4-.1.7-.1,1.1a4,4,0,1,0,4-4ZM18,3a2,2,0,1,1-2,2A2.006,2.006,0,0,1,18,3ZM6,14a2,2,0,1,1,2-2A2.006,2.006,0,0,1,6,14Zm12,7a2.006,2.006,0,0,1-2-2,1.689,1.689,0,0,1,.3-1A1.936,1.936,0,0,1,18,17a2,2,0,0,1,0,4Z" transform="translate(-2 -1)" fill="#0033a0"/>
</svg>
