<svg xmlns="http://www.w3.org/2000/svg" width="22.025" height="16.1" viewBox="0 0 22.025 16.1">
  <path id="volume-2" d="M19.8,4.2a.99.99,0,0,0-1.4,1.4,8.993,8.993,0,0,1,0,12.7.967.967,0,0,0,0,1.4.967.967,0,0,0,1.4,0A10.924,10.924,0,0,0,19.8,4.2Zm-8.4-.1a1.1,1.1,0,0,0-1.1.1L5.6,8H2A.945.945,0,0,0,1,9v6a.945.945,0,0,0,1,1H5.6l4.7,3.8h0a1.421,1.421,0,0,0,.6.2.6.6,0,0,0,.4-.1,1.149,1.149,0,0,0,.6-.9V5A.76.76,0,0,0,11.4,4.1ZM10,16.9,6.6,14.2A1.421,1.421,0,0,0,6,14H3V10H6a1.421,1.421,0,0,0,.6-.2L10,7.1Zm4.8-7.7a.99.99,0,0,1,1.4-1.4,6.1,6.1,0,0,1,0,8.5.967.967,0,0,1-1.4,0,.967.967,0,0,1,0-1.4A3.984,3.984,0,0,0,14.8,9.2Z" transform="translate(-1 -3.9)" fill="#0033a0" fill-rule="evenodd"/>
</svg>
