<svg xmlns="http://www.w3.org/2000/svg" width="116.391" height="29.432" viewBox="0 0 116.391 29.432"><defs><style>.a{fill:#9013fe;fill-rule:evenodd;}</style></defs><path class="a" d="M20.257,7.622c5.935.238,9.222,4.521,9.222,9.948A2.408,2.408,0,0,1,27.1,19.877H16A4.7,4.7,0,0,0,20.92,23.6a8.86,8.86,0,0,0,3.85-.971c1.351-.607,2.335-.445,3.03.851l.574,1.052A2.034,2.034,0,0,1,27.6,27.57a14.85,14.85,0,0,1-7.25,1.862c-6.836,0-10.81-4.432-11.487-9.4h-1.4a1.189,1.189,0,0,1,0-2.376,1.167,1.167,0,0,0,1.191-1.237q0-1.112-1.191-1.147h-1a1.2,1.2,0,0,1-1.108-1.267,1.174,1.174,0,0,1,1.108-1.25H9.287a1.146,1.146,0,0,0,1.163-1.276q0-1.164-1.5-1.22-1.7-.058-1.7-1.291T8.645,7.611h11.63l-.017.011Zm-4.088,8.248h6.306a2.91,2.91,0,0,0-2.907-3.117c-2.048,0-3.032,1.458-3.4,3.117Zm16.218,10.85v-16.4A2,2,0,0,1,34.64,8.1h2.293a1.973,1.973,0,0,1,2.211,2.227v.364c0,.2-.04.526-.04.526h.082a7.459,7.459,0,0,1,6.716-3.6c4.261,0,7.579,1.944,7.579,7.813v11.3a2,2,0,0,1-2.253,2.227H48.647a2,2,0,0,1-2.253-2.227v-10c0-1.944-.777-2.753-2.334-2.753-3.153,0-4.587,2.591-4.587,5.547v7.206a2,2,0,0,1-2.252,2.227H34.639A2,2,0,0,1,32.387,26.719Zm24.9-5.465V2.226A2,2,0,0,1,59.542,0h2.579a2,2,0,0,1,2.253,2.226v18.7c0,1.579.532,1.984,1.188,2.064A1.713,1.713,0,0,1,67.2,24.9v1.984a2.025,2.025,0,0,1-2.294,2.266c-3.646,0-7.618-.891-7.618-7.893Zm11.222,1.822c0-5.587,6.717-7.125,11.92-7.125h.613v-.364c0-1.742-1.433-2.308-2.989-2.308a9.594,9.594,0,0,0-3.81.931c-1.351.566-2.375.324-3.03-.973l-.492-1.011a2.021,2.021,0,0,1,.9-3,17.032,17.032,0,0,1,7.085-1.619c5.817,0,9.421,3.2,9.421,8.5V26.719a2,2,0,0,1-2.253,2.227H83.911a2,2,0,0,1-2.252-2.268v-.161a1.853,1.853,0,0,1,.04-.405h-.082a7.552,7.552,0,0,1-6.225,3.319C71.338,29.432,68.511,26.679,68.511,23.076Zm7-.648a1.793,1.793,0,0,0,2.007,1.781,3.833,3.833,0,0,0,3.605-3.683v-.567h-.656C78.3,19.959,75.515,20.526,75.515,22.429ZM91.9,18.3V2.226A2,2,0,0,1,94.151,0h2.662a2,2,0,0,1,2.253,2.226V18.3c0,3.037,2.007,4.656,5.078,4.656s5.078-1.619,5.078-4.656V2.226A2,2,0,0,1,111.475,0h2.662a2,2,0,0,1,2.253,2.226V18.3c0,6.518-4.834,11.133-12.2,11.133C96.731,29.432,91.9,24.817,91.9,18.3ZM1.2,13.378h.8a1.2,1.2,0,0,1,0,2.408H1.2a1.2,1.2,0,1,1,0-2.408Z"/></svg>