<svg xmlns="http://www.w3.org/2000/svg" width="45.075" height="50" viewBox="0 0 45.075 50"><defs><style>.a{fill:#0033a0;}</style></defs><g transform="translate(-7.138 -2.463)"><g transform="translate(7.138 2.462)"><path class="a" d="M38.306,19.488A13.669,13.669,0,0,0,24,33.166a13.379,13.379,0,0,0,2.946,8.468,21.6,21.6,0,0,1,3.682,6.523l.053,5.837a1.167,1.167,0,0,0,1.158,1.158h.054a5.8,5.8,0,0,0,11.574,0h.053a1.167,1.167,0,0,0,1.158-1.158V48.314l.053-.21a21.6,21.6,0,0,1,3.682-6.523A13.627,13.627,0,0,0,38.306,19.488ZM42.36,48.682v4.1H33v-4.1ZM37.1,32.058h1.208l1.789,2.788a.193.193,0,0,1,.053.158v.21H35.258V35a.193.193,0,0,1,.053-.158Zm1.473,14.306V37.007H40.15v9.364Zm-3.313-9.356h1.579v9.364H35.258Zm2.42,21.148a3.422,3.422,0,0,1-3.419-3H41.15a3.515,3.515,0,0,1-3.472,3Zm8.891-17.992a24.454,24.454,0,0,0-3.63,6.207H41.886V35.007a2.07,2.07,0,0,0-.316-1.1l-2.735-4.261a1.376,1.376,0,0,0-2.262,0L33.838,33.9a1.853,1.853,0,0,0-.368,1.1V46.318H32.417a25.388,25.388,0,0,0-3.63-6.207,11.186,11.186,0,0,1-2.42-7,11.346,11.346,0,0,1,22.674-.474,11.471,11.471,0,0,1-2.473,7.523Z" transform="translate(-15.14 -10.514)"/><path class="a" d="M48.958,7.544a1.167,1.167,0,0,0,1.158-1.158V3.651a1.158,1.158,0,1,0-2.314,0V6.386A1.167,1.167,0,0,0,48.958,7.544Z" transform="translate(-26.42 -2.462)"/><path class="a" d="M28.925,12.1a1.191,1.191,0,0,0,1,.576,1.061,1.061,0,0,0,.576-.158,1.14,1.14,0,0,0,.421-1.579L29.556,8.575a1.155,1.155,0,0,0-2,1.158Z" transform="translate(-16.75 -5.074)"/><path class="a" d="M16.6,24.324l-2.368-1.367a1.155,1.155,0,1,0-1.159,2l2.367,1.368a1.2,1.2,0,0,0,.576.158,1.128,1.128,0,0,0,1-.576,1.14,1.14,0,0,0-.415-1.582Z" transform="translate(-9.689 -12.089)"/><path class="a" d="M12.157,44.358A1.167,1.167,0,0,0,11,43.2H8.264a1.158,1.158,0,0,0,0,2.314H11a1.1,1.1,0,0,0,1.158-1.157Z" transform="translate(-7.138 -21.758)"/><path class="a" d="M15.444,61.168l-2.369,1.366a1.14,1.14,0,0,0-.421,1.579,1.191,1.191,0,0,0,1,.576,1.061,1.061,0,0,0,.576-.158L16.6,63.166a1.14,1.14,0,0,0,.419-1.579,1.174,1.174,0,0,0-1.577-.419Z" transform="translate(-9.687 -30.203)"/><path class="a" d="M82.714,62.522l-2.367-1.368a1.129,1.129,0,0,0-1.579.421,1.174,1.174,0,0,0,.421,1.579l2.367,1.368a1.2,1.2,0,0,0,.576.158,1.128,1.128,0,0,0,1-.576,1.188,1.188,0,0,0-.418-1.582Z" transform="translate(-41.026 -30.191)"/><path class="a" d="M87.2,43.2H84.464a1.158,1.158,0,0,0,0,2.314H87.2a1.158,1.158,0,0,0,0-2.314Z" transform="translate(-43.251 -21.758)"/><path class="a" d="M79.755,26.582a1.061,1.061,0,0,0,.576-.158L82.7,25.056a1.155,1.155,0,0,0-1.158-2l-2.365,1.367A1.14,1.14,0,0,0,78.753,26a1.128,1.128,0,0,0,1,.579Z" transform="translate(-41.015 -12.136)"/><path class="a" d="M66.157,12.52a1.2,1.2,0,0,0,.576.158,1.128,1.128,0,0,0,1-.576L69.1,9.733a1.174,1.174,0,0,0-.421-1.579,1.129,1.129,0,0,0-1.579.421l-1.368,2.367a1.1,1.1,0,0,0,.421,1.578Z" transform="translate(-34.834 -5.072)"/></g></g></svg>