<svg xmlns="http://www.w3.org/2000/svg" width="98.309" height="16.437" viewBox="0 0 98.309 16.437"><defs><style>.a{fill:#0033a0;}</style></defs><g transform="translate(0)"><path class="a" d="M4.169,3.049a8.873,8.873,0,0,1,4.79,1.1,3.977,3.977,0,0,1,1.654,3.584,4.045,4.045,0,0,1-1.688,3.653,8.623,8.623,0,0,1-4.824,1.1H3.136v4.686H0V3.428a14.365,14.365,0,0,1,2.171-.276C2.929,3.084,3.584,3.049,4.169,3.049Zm.207,2.688a4.618,4.618,0,0,0-.689.034c-.207,0-.414.034-.586.034V9.838h1A5.16,5.16,0,0,0,6.547,9.39a1.733,1.733,0,0,0,.827-1.654,2,2,0,0,0-.207-.965,2,2,0,0,0-.586-.62,2.651,2.651,0,0,0-.965-.31A6.946,6.946,0,0,0,4.376,5.737Z" transform="translate(0 -1.051)"/><path class="a" d="M25.46,11.009q-.413-.1-.93-.207a6.174,6.174,0,0,0-1.172-.1,5.368,5.368,0,0,0-.689.034,4.783,4.783,0,0,0-.586.1v8.1h-3V8.907a16.325,16.325,0,0,1,1.9-.517,10.707,10.707,0,0,1,2.447-.241,3.756,3.756,0,0,1,.586.034c.241.034.448.034.689.069s.448.069.689.1a2.365,2.365,0,0,1,.586.172Z" transform="translate(-6.577 -2.808)"/><path class="a" d="M41.058,13.574a6.841,6.841,0,0,1-.379,2.274,4.742,4.742,0,0,1-2.653,2.894,5.252,5.252,0,0,1-2.136.413,5.369,5.369,0,0,1-2.136-.413A5.452,5.452,0,0,1,32.1,17.606a5.013,5.013,0,0,1-1.068-1.757,7.012,7.012,0,0,1,0-4.548A5.579,5.579,0,0,1,32.1,9.542a4.724,4.724,0,0,1,1.654-1.137,5.153,5.153,0,0,1,2.068-.413,5.32,5.32,0,0,1,2.1.413,5.452,5.452,0,0,1,1.654,1.137A5.013,5.013,0,0,1,40.645,11.3,5.821,5.821,0,0,1,41.058,13.574Zm-3.067,0A3.617,3.617,0,0,0,37.44,11.4a1.981,1.981,0,0,0-3.17,0,3.687,3.687,0,0,0-.551,2.171,3.8,3.8,0,0,0,.551,2.205,1.933,1.933,0,0,0,3.17,0A3.878,3.878,0,0,0,37.992,13.574Z" transform="translate(-10.563 -2.754)"/><path class="a" d="M49.579,4.163l3-.482V6.816h3.584V9.3H52.577v3.722a2.824,2.824,0,0,0,.345,1.516c.207.379.655.551,1.344.551a5.181,5.181,0,0,0,1-.1,6.075,6.075,0,0,0,.93-.241l.413,2.343a9.949,9.949,0,0,1-1.206.379,7.291,7.291,0,0,1-1.62.172,5.01,5.01,0,0,1-2.033-.345,2.74,2.74,0,0,1-1.275-.93,3.767,3.767,0,0,1-.689-1.447,7.891,7.891,0,0,1-.207-1.861Z" transform="translate(-17.085 -1.268)"/><path class="a" d="M61.672,13.677A6.248,6.248,0,0,1,62.12,11.2a5.16,5.16,0,0,1,1.137-1.757,4.577,4.577,0,0,1,1.62-1.068,5.128,5.128,0,0,1,1.861-.379A4.571,4.571,0,0,1,70.286,9.37,5.765,5.765,0,0,1,71.6,13.436a3.541,3.541,0,0,1-.034.586c0,.207-.034.379-.034.551H64.739a2.021,2.021,0,0,0,.862,1.482,3.376,3.376,0,0,0,2.033.551,8.333,8.333,0,0,0,1.619-.138,7.608,7.608,0,0,0,1.309-.379l.414,2.447a4.5,4.5,0,0,1-.655.241c-.276.069-.551.138-.9.207a10,10,0,0,1-1.068.138c-.379.034-.758.069-1.137.069a6.677,6.677,0,0,1-2.481-.413,4.773,4.773,0,0,1-1.757-1.172,4.945,4.945,0,0,1-1.034-1.757A8.918,8.918,0,0,1,61.672,13.677ZM68.7,12.506a2.93,2.93,0,0,0-.138-.758,1.716,1.716,0,0,0-.345-.655,1.562,1.562,0,0,0-.586-.448,1.678,1.678,0,0,0-.861-.172,2.127,2.127,0,0,0-.862.172,1.562,1.562,0,0,0-.586.448,2.042,2.042,0,0,0-.379.655,6.206,6.206,0,0,0-.207.758Z" transform="translate(-21.253 -2.754)"/><path class="a" d="M79.232,13.574a6.536,6.536,0,0,1,.379-2.171A5.012,5.012,0,0,1,80.68,9.646,5.171,5.171,0,0,1,82.4,8.44a5.362,5.362,0,0,1,2.274-.448,7.421,7.421,0,0,1,1.551.138,6.446,6.446,0,0,1,1.378.448l-.62,2.412a5.969,5.969,0,0,0-.93-.276,5.71,5.71,0,0,0-1.137-.138,2.3,2.3,0,0,0-1.964.827,3.329,3.329,0,0,0-.655,2.171,3.431,3.431,0,0,0,.62,2.205,2.61,2.61,0,0,0,2.136.793,7.365,7.365,0,0,0,1.172-.1,5.485,5.485,0,0,0,1.137-.31l.413,2.447a7.606,7.606,0,0,1-1.309.379,8.841,8.841,0,0,1-1.723.172,6.024,6.024,0,0,1-2.481-.448,4.772,4.772,0,0,1-1.723-1.172,4.424,4.424,0,0,1-1-1.757A7.58,7.58,0,0,1,79.232,13.574Z" transform="translate(-27.304 -2.754)"/><path class="a" d="M93.481,13.574A6.536,6.536,0,0,1,93.86,11.4a5.013,5.013,0,0,1,1.068-1.757A5.173,5.173,0,0,1,96.651,8.44a5.363,5.363,0,0,1,2.274-.448,7.422,7.422,0,0,1,1.551.138,6.453,6.453,0,0,1,1.378.448l-.621,2.412a5.967,5.967,0,0,0-.93-.276,5.71,5.71,0,0,0-1.137-.138A2.3,2.3,0,0,0,97.2,11.4a3.329,3.329,0,0,0-.655,2.171,3.431,3.431,0,0,0,.62,2.205,2.61,2.61,0,0,0,2.136.793,7.044,7.044,0,0,0,1.172-.1,5.5,5.5,0,0,0,1.137-.31l.414,2.447a7.62,7.62,0,0,1-1.309.379,8.846,8.846,0,0,1-1.723.172,6.025,6.025,0,0,1-2.481-.448,4.773,4.773,0,0,1-1.723-1.172,4.424,4.424,0,0,1-1-1.757A7.58,7.58,0,0,1,93.481,13.574Z" transform="translate(-32.214 -2.754)"/><path class="a" d="M112.4,2.843a1.689,1.689,0,0,1-.516,1.309,1.837,1.837,0,0,1-2.481,0,1.687,1.687,0,0,1-.517-1.309,1.687,1.687,0,0,1,.517-1.309,1.837,1.837,0,0,1,2.481,0A1.689,1.689,0,0,1,112.4,2.843Zm-.275,13.645h-3V5.91h3Z" transform="translate(-37.522 -0.362)"/><path class="a" d="M127.478,10.82a7.88,7.88,0,0,1-.345,2.274,4.741,4.741,0,0,1-2.653,2.894,5.254,5.254,0,0,1-2.137.413,5.371,5.371,0,0,1-2.137-.413,4.923,4.923,0,0,1-1.619-1.137,5.018,5.018,0,0,1-1.068-1.757,7.016,7.016,0,0,1,0-4.548,5.591,5.591,0,0,1,1.068-1.757,4.727,4.727,0,0,1,1.654-1.137,5.15,5.15,0,0,1,2.067-.413,5.317,5.317,0,0,1,2.1.413,4.919,4.919,0,0,1,1.62,1.137A5.577,5.577,0,0,1,127.1,8.546,6.55,6.55,0,0,1,127.478,10.82Zm-2.723-9.1-3.308,2.791-1.378-1.24L122.894,0Zm-.345,9.1a3.613,3.613,0,0,0-.551-2.171,1.981,1.981,0,0,0-3.17,0,3.689,3.689,0,0,0-.551,2.171,3.806,3.806,0,0,0,.551,2.205,1.933,1.933,0,0,0,3.17,0A3.875,3.875,0,0,0,124.41,10.82Z" transform="translate(-40.367)"/><path class="a" d="M136.1,8.664q.776-.207,1.964-.413a14.864,14.864,0,0,1,2.515-.207,6,6,0,0,1,2.239.345,3.3,3.3,0,0,1,1.413,1,4.477,4.477,0,0,1,.758,1.516,8.6,8.6,0,0,1,.206,1.964v6h-3V13.282a4.3,4.3,0,0,0-.379-2.068,1.509,1.509,0,0,0-1.413-.62,4.852,4.852,0,0,0-.689.034c-.241.034-.448.034-.655.069v8.167h-3V8.664Z" transform="translate(-46.89 -2.772)"/></g></svg>