<svg xmlns="http://www.w3.org/2000/svg" width="20" height="20" viewBox="0 0 20 20"><defs><style>.a{fill:#0033a0;}</style></defs><g transform="translate(-2 -2)"><path class="a" d="M8,20H5a.945.945,0,0,1-1-1V16a.945.945,0,0,0-1-1,.945.945,0,0,0-1,1v3a2.946,2.946,0,0,0,3,3H8a1,1,0,0,0,0-2Z"/><path class="a" d="M8,2H5A2.946,2.946,0,0,0,2,5V8A.945.945,0,0,0,3,9,.945.945,0,0,0,4,8V5A.945.945,0,0,1,5,4H8A.945.945,0,0,0,9,3,.945.945,0,0,0,8,2Z"/><path class="a" d="M19,2H16a.945.945,0,0,0-1,1,.945.945,0,0,0,1,1h3a.945.945,0,0,1,1,1V8a1,1,0,0,0,2,0V5A2.946,2.946,0,0,0,19,2Z"/><path class="a" d="M21,15a.945.945,0,0,0-1,1v3a.945.945,0,0,1-1,1H16a1,1,0,0,0,0,2h3a2.946,2.946,0,0,0,3-3V16A.945.945,0,0,0,21,15Z"/></g></svg>