<svg xmlns="http://www.w3.org/2000/svg" width="33.554" height="33.554" viewBox="0 0 33.554 33.554"><defs><style>.a{fill:#464454;}</style></defs><g transform="translate(-5 -5)"><path class="a" d="M36.914,5H6.64A1.64,1.64,0,0,0,5,6.64V36.914a1.64,1.64,0,0,0,1.64,1.64H36.914a1.64,1.64,0,0,0,1.64-1.64V6.64A1.64,1.64,0,0,0,36.914,5Zm.541,31.914a.541.541,0,0,1-.541.541H6.64a.541.541,0,0,1-.541-.541V6.64A.541.541,0,0,1,6.64,6.1H36.914a.541.541,0,0,1,.541.541Z"/><path class="a" d="M39.283,25.88H15.6a1.64,1.64,0,0,0-1.64,1.64V37.747a1.64,1.64,0,0,0,1.64,1.64H39.283a1.64,1.64,0,0,0,1.64-1.64V27.52a1.643,1.643,0,0,0-1.64-1.64Zm.541,11.867a.541.541,0,0,1-.541.541H15.6a.541.541,0,0,1-.541-.541v-.1l4.9-2.707,4.586,2.226a.551.551,0,0,0,.578-.06L33.8,30.432,39.824,34.7v3.039Zm0-4.384L34.1,29.31a.554.554,0,0,0-.652.011L24.72,36.032l-4.534-2.2a.553.553,0,0,0-.507.011l-4.616,2.55V27.517a.541.541,0,0,1,.541-.541H39.286a.541.541,0,0,1,.541.541v5.846Z" transform="translate(-5.619 -13.095)"/><path class="a" d="M24.55,70.38H14.5a.552.552,0,0,0,0,1.1H24.546a.552.552,0,0,0,0-1.1Z" transform="translate(-5.613 -41.004)"/><path class="a" d="M24.55,81.35H14.5a.552.552,0,1,0,0,1.1H24.546a.552.552,0,0,0,0-1.1Z" transform="translate(-5.613 -47.884)"/><path class="a" d="M66.976,70.38H56.932a.552.552,0,0,0,0,1.1H66.976a.552.552,0,0,0,0-1.1Z" transform="translate(-32.224 -41.004)"/><path class="a" d="M66.976,81.35H56.932a.552.552,0,1,0,0,1.1H66.976a.552.552,0,1,0,0-1.1Z" transform="translate(-32.224 -47.884)"/><path class="a" d="M30.819,17.1a.552.552,0,1,0,0-1.1H13.412a.552.552,0,0,0,0,1.1Z" transform="translate(-4.93 -6.899)"/><path class="a" d="M66.2,17.1h2.319a.552.552,0,1,0,0-1.1H66.2a.552.552,0,1,0,0,1.1Z" transform="translate(-38.038 -6.899)"/><path class="a" d="M79.971,16H77.652a.552.552,0,1,0,0,1.1h2.319a.552.552,0,0,0,0-1.1Z" transform="translate(-45.219 -6.899)"/><path class="a" d="M22.529,31.12a2.189,2.189,0,1,0,2.189,2.189,2.189,2.189,0,0,0-2.189-2.189Zm0,3.273a1.085,1.085,0,1,1,1.085-1.085A1.085,1.085,0,0,1,22.529,34.393Z" transform="translate(-9.621 -16.382)"/></g></svg>