<svg xmlns="http://www.w3.org/2000/svg" width="26.35" height="32.102" viewBox="0 0 26.35 32.102"><defs><style>.a{fill:#464454;}</style></defs><g transform="translate(-17.043 -36.084)"><g transform="translate(17.067 36.091)"><path class="a" d="M129.718,60.085a12.444,12.444,0,0,1-1.494-.8q-.354-.223-.688-.465c-.057-.04-.115-.084-.172-.128-.027-.02-.051-.037-.074-.057-.074-.054.1.078.024.02-.118-.094-.236-.185-.351-.283a12.8,12.8,0,0,1-1.2-1.146c-.192-.209-.378-.425-.553-.647-.027-.037-.155-.185-.04-.051-.04-.047-.078-.1-.115-.152-.084-.115-.169-.229-.25-.347a12.083,12.083,0,0,1-.863-1.45,7.751,7.751,0,0,1-.354-.759c.067.182-.02-.047-.034-.084-.027-.067-.054-.135-.078-.2-.051-.135-.1-.273-.148-.408a12.633,12.633,0,0,1-.438-1.649c-.027-.145-.054-.29-.078-.438-.01-.064-.02-.132-.03-.2-.007-.047.007-.108,0,.03,0-.047-.013-.1-.017-.148-.034-.29-.057-.583-.071-.877a12.635,12.635,0,0,1,.037-1.713c.01-.125.024-.246.037-.371,0-.037.01-.078.013-.115.01-.094-.02.135-.007.04.01-.078.024-.152.034-.229.04-.263.094-.529.152-.789a12.49,12.49,0,0,1,.448-1.521c.047-.128.094-.253.145-.378a1.416,1.416,0,0,1,.067-.165c-.094.172.017-.037.037-.084.1-.239.219-.472.341-.7a12.109,12.109,0,0,1,.816-1.345c.071-.1.145-.206.219-.307.034-.047.071-.094.108-.142.057-.078-.1.132-.01.013a1.077,1.077,0,0,0,.067-.088c.162-.2.327-.4.5-.59a13.212,13.212,0,0,1,1.119-1.1c.094-.081.192-.162.287-.239l.138-.111a.559.559,0,0,1,.071-.054c-.152.081-.037.027,0,0,.212-.158.428-.314.651-.459a12.119,12.119,0,0,1,1.349-.772q.172-.086.344-.162l.185-.081a.558.558,0,0,1,.081-.037c-.027.01-.054.024-.078.034.027-.01.054-.024.084-.034.236-.1.475-.185.715-.27a12.946,12.946,0,0,1,1.558-.421q.192-.04.384-.071l.182-.03c.037-.007.078-.01.115-.017.1-.013.044-.02-.02,0a2.112,2.112,0,0,1,.415-.047c.138-.013.28-.024.421-.034a12.865,12.865,0,0,1,1.652,0c.142.01.28.02.418.034l.185.02.091.01c.067.007.155-.017,0,0a1.491,1.491,0,0,1,.364.057c.145.024.287.051.428.081a12.468,12.468,0,0,1,1.554.425c.249.084.492.182.735.28.084.034-.121-.054-.037-.017.034.017.067.03.1.044.054.024.108.047.162.074l.364.172a12.679,12.679,0,0,1,1.345.779c.223.148.435.3.647.462.094.071-.02-.017-.03-.024a.491.491,0,0,1,.071.054c.051.04.1.081.155.125.1.084.206.169.3.256a12.265,12.265,0,0,1,1.116,1.1c.172.192.337.388.5.59a.861.861,0,0,1,.067.088c-.007-.013-.094-.125-.024-.03.034.047.071.094.1.142l.233.324a12.437,12.437,0,0,1,.813,1.349c.121.233.233.465.337.7.013.027.024.054.037.081.061.138-.044-.108-.007-.017.024.054.047.111.067.165.054.131.1.266.152.4a12.684,12.684,0,0,1,.442,1.524c.061.27.111.539.152.813.01.061.017.121.027.182,0-.017-.02-.162-.007-.04l.01.091c.017.138.03.276.044.418a12.2,12.2,0,0,1,.03,1.72c-.013.293-.04.583-.074.873,0,.01-.02.175-.007.057.01-.1,0,.01,0,.034-.01.074-.02.148-.034.219-.024.145-.051.293-.078.438a12.615,12.615,0,0,1-.445,1.645c-.047.138-.1.273-.148.408l-.071.179c-.013.03-.024.061-.037.088-.064.155.061-.135-.007.017-.111.256-.229.509-.357.759a12.549,12.549,0,0,1-.87,1.446c-.071.1-.145.206-.223.307-.024.03-.047.064-.071.094s-.078.1-.02.027-.007.007-.02.024c-.03.037-.057.074-.088.111-.172.216-.354.425-.539.627a12.364,12.364,0,0,1-1.2,1.14c-.108.091-.229.172-.334.266.013-.013.118-.091.024-.02-.027.02-.051.037-.074.057l-.192.142c-.226.162-.455.317-.691.462a12.241,12.241,0,0,1-1.453.776.678.678,0,0,0-.243.924.7.7,0,0,0,.924.243,13.16,13.16,0,1,0-12.416-.779,12.6,12.6,0,0,0,1.473.789.673.673,0,0,0,.671-1.167Z" transform="translate(-121.347 -36.091)"/><g transform="translate(3.826 3.832)"><path class="a" d="M239.357,165.477c-.04-.03-.081-.057-.121-.091.132.111,0,0-.02-.017-.064-.051-.128-.1-.192-.158-.138-.118-.276-.239-.408-.368a8.734,8.734,0,0,1-.755-.826c-.027-.034-.054-.064-.078-.1l-.017-.024c-.051-.067-.1-.135-.145-.2-.111-.158-.216-.317-.314-.482a9.433,9.433,0,0,1-.519-1c-.013-.03-.054-.118.007.02-.02-.047-.037-.094-.057-.142l-.091-.236c-.071-.192-.132-.384-.189-.583a9.554,9.554,0,0,1-.239-1.109c-.007-.034-.027-.128,0,.024a1.206,1.206,0,0,1-.017-.155c-.01-.088-.017-.175-.024-.263-.017-.212-.027-.425-.027-.637a8.884,8.884,0,0,1,.054-1.038l.01-.091c.017-.162-.024.158,0,0,.013-.078.024-.152.037-.229.03-.182.067-.361.111-.539a8.613,8.613,0,0,1,.287-.954c.027-.071.054-.142.081-.209a.511.511,0,0,1,.051-.125c-.081.084-.04.088-.007.017.071-.155.142-.31.219-.465a8.7,8.7,0,0,1,.489-.843c.084-.128.175-.256.266-.381.02-.03.044-.057.067-.088.094-.125-.094.118,0,0,.054-.067.111-.138.169-.206a9.377,9.377,0,0,1,.664-.7c.118-.111.236-.219.361-.324l.169-.142c.027-.02.071-.074.1-.081l-.067.051c.024-.017.047-.037.071-.054a8.65,8.65,0,0,1,.809-.539,9.2,9.2,0,0,1,.87-.448.951.951,0,0,1,.121-.054c-.152.034-.067.027-.017.007l.229-.091c.155-.057.31-.111.469-.158a8.743,8.743,0,0,1,.974-.239c.091-.017.182-.03.273-.047a.844.844,0,0,0,.091-.014c-.192.037-.037.007,0,0,.169-.02.341-.034.512-.044a8.89,8.89,0,0,1,1.039,0c.172.01.341.024.513.044l.047.007c.074.01.061.007-.04-.007a.4.4,0,0,1,.091.014q.15.019.3.051a8.69,8.69,0,0,1,.971.239c.152.047.3.1.448.152l.209.081c.047.02.172.037,0,0a.906.906,0,0,1,.145.064,8.95,8.95,0,0,1,1.7,1c.054.04.057.007-.03-.024a.363.363,0,0,1,.1.081c.057.047.115.094.169.142.135.115.266.233.391.354a8.732,8.732,0,0,1,.661.708c.047.057.094.115.138.172.1.121-.091-.121,0,0,.017.024.037.047.054.071q.157.212.3.435a8.439,8.439,0,0,1,.486.846c.067.132.132.266.189.4a.2.2,0,0,1,.017.04c.03.067.024.054-.017-.037a.461.461,0,0,1,.051.125c.034.084.064.169.094.253a9.391,9.391,0,0,1,.283.954c.037.155.067.314.1.472.014.084.027.165.04.249.024.155-.013-.121,0-.02l.02.162a9.055,9.055,0,0,1,.051,1.045c0,.2-.01.391-.027.583-.007.088-.013.175-.024.263-.007.051-.01.1-.017.155.024-.115.007-.047,0,.027a8.924,8.924,0,0,1-.243,1.109c-.051.179-.111.357-.175.533-.03.081-.057.158-.091.236-.02.047-.037.094-.057.142.047-.1.017-.044-.013.024a8.17,8.17,0,0,1-.513.978c-.094.155-.2.31-.3.462-.047.067-.1.135-.145.2-.03.04-.078.162-.017.024a.765.765,0,0,1-.094.118,9.293,9.293,0,0,1-.738.809c-.132.128-.266.25-.408.368-.064.054-.128.108-.192.158-.024.02-.152.128-.02.017-.037.03-.081.061-.121.091a.692.692,0,0,0-.243.924.685.685,0,0,0,.924.243,9.339,9.339,0,1,0-11.929-.8,10.205,10.205,0,0,0,.978.809.676.676,0,0,0,.924-.243.7.7,0,0,0-.246-.92Z" transform="translate(-234.812 -149.728)"/></g><g transform="translate(8.187 8.193)"><path class="a" d="M372.781,284.046a2.8,2.8,0,0,1-.013.33c0,.047-.01.094-.013.138-.01.121,0-.024.007-.04a.839.839,0,0,0-.013.091,4.37,4.37,0,0,1-.148.62c-.017.047-.064.276-.108.3,0,0,.057-.128.024-.057-.01.02-.017.04-.027.061-.024.054-.051.108-.078.162a4.052,4.052,0,0,1-.32.533c-.017.024-.094.162-.051.074s-.037.044-.057.071c-.071.084-.145.165-.223.246s-.135.135-.206.2c-.037.034-.078.067-.118.1a.584.584,0,0,0-.051.044c-.024.017-.125.074-.037.03s-.051.037-.074.051-.074.051-.111.074c-.091.061-.189.118-.283.172s-.172.091-.256.132c-.034.017-.175.057-.084.037s.02-.01,0,0l-.1.04a4.827,4.827,0,0,1-.61.172l-.158.03-.067.01.064-.01c-.111-.007-.236.024-.351.027a6.093,6.093,0,0,1-.657-.024c-.094-.007.135.02.04.007l-.067-.01c-.054-.01-.1-.017-.158-.03-.1-.02-.209-.047-.31-.074a3.114,3.114,0,0,1-.3-.1c-.024-.007-.138-.037-.148-.057,0,0,.128.057.057.024l-.081-.037a4.367,4.367,0,0,1-.563-.314c-.037-.024-.074-.051-.111-.074s-.158-.094-.074-.051.02.017,0,0-.047-.037-.067-.057l-.135-.115a4.446,4.446,0,0,1-.428-.445.425.425,0,0,1-.084-.1c.034.091.064.084.027.03a.524.524,0,0,1-.037-.054c-.064-.091-.125-.182-.182-.276a2.763,2.763,0,0,1-.142-.253c-.024-.047-.047-.094-.067-.142-.01-.02-.017-.04-.027-.061-.054-.121-.02.007.007.017-.04-.017-.084-.226-.1-.273-.034-.108-.067-.216-.094-.327s-.047-.209-.064-.314a.427.427,0,0,0-.01-.067c-.013-.078.01.067.01.064-.024-.02-.017-.148-.017-.185a4.325,4.325,0,0,1,0-.661,1.268,1.268,0,0,1,.017-.162c.007-.078-.01.067-.01.064a.648.648,0,0,1,.013-.091c.017-.1.037-.209.064-.314s.054-.206.084-.307c.017-.054.061-.273.108-.3-.024.01-.057.125-.017.037.01-.02.017-.04.027-.061.02-.047.044-.094.067-.142q.071-.137.152-.273c.054-.088.108-.175.169-.26.017-.024.1-.165.051-.074-.034.071-.017.02,0,0s.047-.057.071-.084a4.089,4.089,0,0,1,.428-.442.946.946,0,0,1,.219-.185c-.01,0-.132.094-.03.027a.5.5,0,0,1,.054-.037c.047-.034.1-.067.145-.1a4.5,4.5,0,0,1,.543-.3c.02-.01.04-.017.061-.027.088-.04-.027-.007-.037.017.01-.02.1-.04.125-.047a3.314,3.314,0,0,1,.324-.1c.094-.027.192-.051.287-.071l.158-.03.067-.01c.155-.024-.111.01-.02,0a5.358,5.358,0,0,1,.658-.024c.108,0,.219.017.327.024.078.007-.064-.01-.064-.01l.067.01c.061.01.121.02.182.034a3.818,3.818,0,0,1,.61.172c.017.007.138.037.148.057,0,0-.155-.067-.037-.017.02.01.04.017.061.027.1.047.2.1.3.152s.165.1.246.148a1.443,1.443,0,0,1,.128.088.513.513,0,0,0,.054.037c.057.037.1.027-.013-.013a.879.879,0,0,1,.219.185c.081.074.162.148.239.229s.132.142.192.212a.42.42,0,0,1,.1.121s-.081-.111-.037-.047c.02.03.044.061.064.091a4.461,4.461,0,0,1,.32.533c.024.047.047.094.067.142.013.03.051.155.03.064s.02.057.03.088c.02.057.04.115.057.172a4.374,4.374,0,0,1,.148.62.424.424,0,0,0,.01.067c.017.094-.013-.135-.007-.04a1.274,1.274,0,0,0,.017.162,1.28,1.28,0,0,1,.027.31.675.675,0,0,0,1.349,0,4.981,4.981,0,0,0-8.787-3.213,5.108,5.108,0,0,0-1.163,2.859,4.974,4.974,0,0,0,2.849,4.859,5.134,5.134,0,0,0,3.132.371,5,5,0,0,0,3.894-4.043,5.746,5.746,0,0,0,.074-.833.679.679,0,0,0-.674-.674A.69.69,0,0,0,372.781,284.046Z" transform="translate(-364.165 -279.065)"/></g><g transform="translate(9.821 19.02)"><path class="a" d="M416.225,611.927c-.2,0-.391.007-.587,0l-.142-.01c-.162-.01.152.034,0,0-.074-.017-.148-.03-.223-.051-.047-.013-.233-.044-.256-.088.027.01.054.024.078.034l-.081-.037c-.054-.027-.1-.054-.158-.084s-.125-.081-.185-.121c-.128-.084.111.1,0,0-.034-.03-.067-.057-.1-.088-.064-.061-.125-.125-.185-.192a.237.237,0,0,1-.027-.034c-.044-.057-.037-.044.024.034-.024-.007-.061-.084-.078-.108a2.269,2.269,0,0,1-.135-.229c-.007-.013-.064-.108-.057-.121.01.027.024.054.034.078-.01-.027-.02-.057-.03-.084a2.248,2.248,0,0,1-.067-.216c-.01-.044-.02-.088-.03-.135-.007-.03-.01-.061-.017-.091.013.1.013.118.007.041-.034-.553-.01-1.113-.01-1.666v-5.513a.974.974,0,0,1,.007-.142v-.047c.01-.074.007-.061-.007.04a1.34,1.34,0,0,1,.145-.523c-.01.027-.024.054-.034.078.013-.027.024-.054.037-.081s.04-.081.061-.118c.044-.078.094-.152.142-.226.081-.121-.078.078-.01.013a.843.843,0,0,0,.071-.084,2.231,2.231,0,0,1,.219-.216.233.233,0,0,1,.034-.027c.057-.044.044-.037-.034.024,0-.02.091-.064.108-.078.061-.04.125-.078.192-.115.04-.02.081-.04.118-.061.138-.071-.145.047,0,0,.1-.034.2-.067.3-.094l.088-.02a.2.2,0,0,1,.044-.007c.074-.013.061-.01-.044,0,.03-.034.233-.017.28-.017h.59a.913.913,0,0,1,.094.007h.047c.074.01.061.007-.04-.007.024-.027.273.061.31.071a1.078,1.078,0,0,1,.128.044c.014.007.027.01.044.017.067.027.057.02-.037-.017.024-.013.179.091.2.1.078.044.152.094.226.142.128.084-.111-.1,0,0l.132.118a1.725,1.725,0,0,1,.152.162.238.238,0,0,1,.027.034c.044.057.037.044-.024-.034.02,0,.064.091.078.108a2.26,2.26,0,0,1,.135.229l.04.081c.03.067.024.054-.014-.037.01.027.02.057.03.084a2.305,2.305,0,0,1,.078.26c.01.044.017.091.027.135.034.158-.01-.158,0,0,.007.081.01.162.01.246v6.936a.974.974,0,0,1-.007.142l-.01.091c0-.03.007-.057.01-.088a1.431,1.431,0,0,1-.145.523c.01-.027.024-.054.034-.078-.013.027-.024.054-.037.081s-.034.067-.051.1a2.782,2.782,0,0,1-.155.243c-.084.128.1-.111,0,0-.03.034-.057.067-.088.1a2.079,2.079,0,0,1-.175.169c-.013.013-.067.074-.084.071l.067-.051-.071.051a2.643,2.643,0,0,1-.266.158c-.013.007-.108.064-.121.057.01,0,.132-.051.037-.017a2.305,2.305,0,0,1-.26.081l-.135.03a.2.2,0,0,1-.044.007c-.074.013-.061.01.044,0-.013.047-.216.027-.263.027a.674.674,0,1,0,0,1.349,3.13,3.13,0,0,0,3.089-3.112c0-.657,0-1.312,0-1.969,0-1.649.034-3.3,0-4.953a3.085,3.085,0,0,0-1.069-2.283,3.2,3.2,0,0,0-1.2-.647,3.8,3.8,0,0,0-1.032-.111,4.428,4.428,0,0,0-1.012.088,3.14,3.14,0,0,0-1.221.614,3.1,3.1,0,0,0-1.136,2.246c-.034.587,0,1.184,0,1.774v5.236a3.134,3.134,0,0,0,2.994,3.119c.2.007.391,0,.587,0a.676.676,0,0,0,0-1.352Z" transform="translate(-412.628 -600.2)"/></g></g></g></svg>