<svg xmlns="http://www.w3.org/2000/svg" width="35.7" height="26.31" viewBox="0 0 35.7 26.31"><defs><style>.a{fill:#464454;}</style></defs><g transform="translate(-3 -11.42)"><g transform="translate(3 11.42)"><path class="a" d="M37.907,32.863V15.838a.418.418,0,0,0-.418-.418h-27.2a.418.418,0,0,0-.418.418V32.863a.418.418,0,0,0,.418.418h27.2A.418.418,0,0,0,37.907,32.863Zm-.837-.418H10.708V16.256H37.07Z" transform="translate(-6.038 -13.189)"/><path class="a" d="M38.282,32.9H37.1V13.512a2.094,2.094,0,0,0-2.092-2.092H6.693A2.094,2.094,0,0,0,4.6,13.512V32.9H3.418A.418.418,0,0,0,3,33.323v1.2A3.211,3.211,0,0,0,6.207,37.73H35.493A3.211,3.211,0,0,0,38.7,34.519v-1.2a.418.418,0,0,0-.418-.419ZM5.438,13.512a1.256,1.256,0,0,1,1.255-1.255H35.008a1.256,1.256,0,0,1,1.255,1.255V32.9H5.438ZM25.212,33.744a1.786,1.786,0,0,1-1.732,1.362H18.221a1.786,1.786,0,0,1-1.732-1.362Zm12.651.775a2.374,2.374,0,0,1-2.371,2.371H6.207a2.374,2.374,0,0,1-2.371-2.371v-.778H15.643a2.618,2.618,0,0,0,2.577,2.2h5.26a2.618,2.618,0,0,0,2.577-2.2H37.864Z" transform="translate(-3 -11.42)"/></g></g></svg>