<svg xmlns="http://www.w3.org/2000/svg" width="36.983" height="31.173" viewBox="0 0 36.983 31.173"><defs><style>.a{fill:#464454;}</style></defs><g transform="translate(-1.61 -4.027)"><path class="a" d="M4.746,4.027A3.132,3.132,0,0,0,1.611,7.162V22.1a3.132,3.132,0,0,0,3.135,3.135H35.459A3.132,3.132,0,0,0,38.593,22.1V7.162a3.132,3.132,0,0,0-3.135-3.135Zm0,1.289H35.459a1.856,1.856,0,0,1,1.847,1.847V22.1a1.856,1.856,0,0,1-1.847,1.847H4.746A1.856,1.856,0,0,1,2.9,22.1V7.163A1.856,1.856,0,0,1,4.746,5.316Zm12.89,3.691a.641.641,0,0,0-.669.645v9.962a.628.628,0,0,0,1,.535l7.472-4.98a.633.633,0,0,0,0-1.073h0l-7.47-4.981A.616.616,0,0,0,17.636,9Zm.62,1.852,5.667,3.776-5.667,3.776ZM14.314,28.93a3.145,3.145,0,0,0-2.957,2.093l-.141.4H2.254a.644.644,0,0,0,0,1.288h8.962l.141.4a3.135,3.135,0,0,0,5.911,0l.141-.4h20.54a.644.644,0,1,0,0-1.288H17.409l-.141-.4a3.14,3.14,0,0,0-2.954-2.093Zm0,1.29a1.845,1.845,0,1,1-1.847,1.847,1.845,1.845,0,0,1,1.847-1.847Z"/></g></svg>