<svg xmlns="http://www.w3.org/2000/svg" width="31" height="34.639" viewBox="0 0 31 34.639"><defs><style>.a{fill:#0033a0;}</style></defs><g transform="translate(-16 -2.14)"><path class="a" d="M43.671,11.4A9.4,9.4,0,1,0,31.356,25.6a2.551,2.551,0,0,1,.918,1.956v1.961a.854.854,0,0,0,.855.855h8.547a.854.854,0,0,0,.855-.855V27.551a2.508,2.508,0,0,1,.891-1.937,9.391,9.391,0,0,0,.25-14.218ZM42.326,24.3a4.216,4.216,0,0,0-1.506,3.25v1.107H38.256V25.239a.855.855,0,0,0-.321-.668l-3.7-2.964a.654.654,0,0,1-.248-.515V20.77a.66.66,0,0,1,.659-.659h.239a.658.658,0,0,1,.55.294,2.369,2.369,0,0,0,3.942,0,.654.654,0,0,1,.549-.3h.239a.66.66,0,0,1,.66.659v.423a.656.656,0,0,1-.193.467l-2.12,2.12,1.209,1.209,2.121-2.12a2.356,2.356,0,0,0,.693-1.675V20.77a2.371,2.371,0,0,0-2.369-2.37h-.239a2.366,2.366,0,0,0-1.972,1.055.66.66,0,0,1-1.1,0A2.365,2.365,0,0,0,34.882,18.4h-.239a2.371,2.371,0,0,0-2.369,2.368v.322a2.356,2.356,0,0,0,.889,1.85l3.385,2.708v3.008H33.983v-1.1a4.259,4.259,0,0,0-1.526-3.267,7.693,7.693,0,1,1,9.874.016Z" transform="translate(-4.828 -1.281)"/><rect class="a" width="10" height="1" transform="translate(28 30.14)"/><path class="a" d="M35.855,38a.854.854,0,0,0-.855.855,3.419,3.419,0,1,0,6.837,0A.854.854,0,0,0,40.983,38Zm2.564,2.564a1.709,1.709,0,0,1-1.479-.855H39.9a1.711,1.711,0,0,1-1.481.855Z" transform="translate(-5.845 -5.495)"/><rect class="a" width="1" height="4" transform="translate(32 2.14)"/><rect class="a" width="1.709" height="4.273" transform="translate(20.403 6.614) rotate(-45)"/><rect class="a" width="4.273" height="1.709" transform="translate(40.913 8.428) rotate(-45)"/><rect class="a" width="3" height="1" transform="translate(44 16.14)"/><rect class="a" width="5" height="1" transform="translate(16 16.14)"/></g></svg>