<svg xmlns="http://www.w3.org/2000/svg" width="48.017" height="48.122" viewBox="0 0 48.017 48.122"><defs><style>.a{fill:#667280;}</style></defs><path class="a" d="M1020.871,660.19a1.459,1.459,0,0,0,1.381-1.527v-3.6a1.074,1.074,0,0,1,1-1.132h10.52a1.075,1.075,0,0,1,1,1.132v3.6a1.387,1.387,0,1,0,2.761,0v-3.6a4,4,0,0,0-3.762-4.186h-10.52a4,4,0,0,0-3.763,4.186v3.6A1.459,1.459,0,0,0,1020.871,660.19Zm30.27.852h-45.256a1.459,1.459,0,0,0-1.381,1.527v5.488c0,7.211,8.928,12.445,21.23,12.445h5.558c12.3,0,21.23-5.234,21.23-12.445v-5.488A1.459,1.459,0,0,0,1051.141,661.042Zm-1.381,7.015c0,5.266-8.112,9.39-18.468,9.39h-5.558c-10.356,0-18.468-4.124-18.468-9.39V664.1h42.494Zm1.381,8.238a1.46,1.46,0,0,0-1.381,1.527v18.121h-42.494V677.822a1.388,1.388,0,1,0-2.762,0V697.47a1.459,1.459,0,0,0,1.381,1.527h45.256a1.459,1.459,0,0,0,1.38-1.527V677.822A1.459,1.459,0,0,0,1051.141,676.3Zm-40.2,9.256a1.459,1.459,0,0,0-1.381,1.527V692.3a1.458,1.458,0,0,0,1.381,1.527h35.149a1.459,1.459,0,0,0,1.381-1.527v-5.223a1.388,1.388,0,1,0-2.761,0v3.7h-32.389v-3.7A1.459,1.459,0,0,0,1010.938,685.552Zm14.63-11.532h5.89a1.535,1.535,0,0,0,0-3.054h-5.89a1.535,1.535,0,0,0,0,3.054Z" transform="translate(-1004.504 -650.875)"/></svg>