<svg xmlns="http://www.w3.org/2000/svg" width="45.632" height="48.132" viewBox="0 0 45.632 48.132"><defs><style>.a{opacity:0.5;}.b{fill:#667280;}</style></defs><g class="a"><path class="b" d="M343.391,599.943c-4.165-.005-7.233,2.9-7.254,6.869-.018,3.675,2.68,6.23,6.582,6.232a6.9,6.9,0,0,0,7.271-7c-.013-3.53-2.791-6.1-6.6-6.1" transform="translate(-304.358 -599.943)"/><path class="b" d="M299.594,601.278a1.058,1.058,0,0,0-1.046.89c-.744,4.622-4.154,25.822-4.718,29.637-.634,4.288-1.63,10.448,2.385,14.192,2.81,2.62,7.837,2.786,11.317,2.256a4.547,4.547,0,0,0,3.8-3.762l.861-5.228a15.925,15.925,0,0,1-4.106.694c-1.933,0-4.258-.724-4.5-4.167-.066-1.236,2.82-19.1,4.377-28.628a5.068,5.068,0,0,0-5-5.885Z" transform="translate(-290.809 -600.365)"/><path class="b" d="M316.205,621.182H291.722a1.06,1.06,0,0,0-1.047.9l-.973,6.364a1.06,1.06,0,0,0,1.048,1.22h24.159Z" transform="translate(-289.689 -606.651)"/><path class="b" d="M324.859,621.186c-2.556,0-6.885,0-9.254,0-.534,2.865-1.413,5.656-2.161,8.479h8.172c4.932,0,6.025,3.478,5.479,6.535-.675,4.207-1.173,7.342-2.61,16.2a1.061,1.061,0,0,0,1.045,1.232h7.518a1.062,1.062,0,0,0,1.047-.892c1.293-7.982,1.914-11.933,2.813-18.08.964-6.59-2.876-13.454-12.048-13.466" transform="translate(-297.191 -606.651)"/><path class="b" d="M317.266,640.014H314.5a2.175,2.175,0,0,0-1.223.4,1.8,1.8,0,0,0-.657,1.126,2.905,2.905,0,0,0-1.391.014,1.667,1.667,0,0,0-.558-1.153,2.02,2.02,0,0,0-1.4-.383h-2.129a2.508,2.508,0,0,0-2.269,2.7v1.1a2.226,2.226,0,0,0,1.848,2.334l.384.029a4.01,4.01,0,0,0,4.145-3.751c0-.1.006-.209.007-.311a2.46,2.46,0,0,1,1.279-.009c-.007.085-.012.171-.016.258a4.419,4.419,0,0,0,4.154,4.282l.468.036a2.526,2.526,0,0,0,2.64-2.312l.125-1.257a2.715,2.715,0,0,0-2.644-3.1" transform="translate(-294.486 -612.598)"/></g></svg>