<svg xmlns="http://www.w3.org/2000/svg" width="45.134" height="48" viewBox="0 0 45.134 48"><defs><style>.a{fill:#0033a0;}</style></defs><g transform="translate(-295 -3953)"><path class="a" d="M72.307,89.607h0a6.523,6.523,0,0,0,4.3-1.913L94.059,70.237a1.2,1.2,0,0,0,1.516-.144L99.665,66l.373,1.672-9.745,9.745a1.2,1.2,0,0,0,0,1.7,1.181,1.181,0,0,0,.854.349A1.232,1.232,0,0,0,92,79.116L102.216,68.9a1.228,1.228,0,0,0,.325-1.119l-.854-3.8.782-.782a7.312,7.312,0,0,0,0-10.335l-.3-.3a7.312,7.312,0,0,0-10.335,0L84.94,59.457a1.191,1.191,0,0,0-.349.854,1.163,1.163,0,0,0,.2.662L67.3,78.442a6.5,6.5,0,0,0-1.9,4.211l-.337,5.342-2.238,2.238a1.2,1.2,0,0,0,0,1.7,1.181,1.181,0,0,0,.854.349,1.232,1.232,0,0,0,.854-.349l2.045-2.045ZM93.53,54.26a4.9,4.9,0,0,1,6.93,0l.3.3a4.9,4.9,0,0,1,0,6.93l-6.04,6.04-2.37-2.37L87.49,60.3ZM67.8,82.821A4.157,4.157,0,0,1,69,80.15L86.468,62.681,89.4,65.617l2.936,2.936L74.894,86a4.107,4.107,0,0,1-2.719,1.2h0l-4.68.241Z" transform="translate(232.525 3902.575)"/><path class="a" d="M137.85,272.368a1.208,1.208,0,1,0-2.382.409c1.023,5.943-3.633,9.2-7.712,10.888a25.659,25.659,0,0,1-3.164,1.071,6.048,6.048,0,0,0-.806-.734,16.443,16.443,0,0,0-7.977-3.272c-2.6-.289-4.86.168-6.208,1.263a3.1,3.1,0,0,0-.866,3.958c.89,1.829,4.247,2.274,6.918,2.322a33.994,33.994,0,0,0,6.256-.505c-1.432.782-4.259,1.7-8.771,2.238-5.546.662-11.237.445-14.521-.565a1.2,1.2,0,0,0-.71,2.3,31.764,31.764,0,0,0,8.831,1.047,56.813,56.813,0,0,0,6.677-.4c3.766-.445,10.286-1.624,11.73-4.427a2.507,2.507,0,0,0,.289-.987l1.083-.325a19.823,19.823,0,0,0,8.542-4.981A10.312,10.312,0,0,0,137.85,272.368Zm-21.006,13.511c-3.838.084-5.667-.626-5.919-.975a.737.737,0,0,1,.229-1.047c1.359-1.107,6.027-1.468,10.479,1.528A30.933,30.933,0,0,1,116.844,285.879Z" transform="translate(202.1 3708.216)"/></g></svg>