<svg xmlns="http://www.w3.org/2000/svg" width="47" height="46.265" viewBox="0 0 47 46.265"><defs><style>.a{fill:#667280;}</style></defs><g transform="translate(-2750 -3685)"><path class="a" d="M14.711,47.908a6.852,6.852,0,0,1,5.323,2.66l.168.192a6.261,6.261,0,0,0,.7.692c.1.08.2.16.288.223a5.814,5.814,0,0,0,.676.431l.134.069a3.239,3.239,0,0,0,.384.181,4.4,4.4,0,0,0,.5.176,4.1,4.1,0,0,0,.451.122,5.272,5.272,0,0,0,.787.112H24.5a5.4,5.4,0,0,0,1.18-.133,2.417,2.417,0,0,0,.35-.1,4.907,4.907,0,0,0,.595-.207h.043l.3-.144.12-.064a5.77,5.77,0,0,0,.734-.463l.254-.2a6.336,6.336,0,0,0,.748-.75l.158-.192a6.714,6.714,0,0,1,5.276-2.612h1.957a1.337,1.337,0,0,0,0-2.66H34.274a9.017,9.017,0,0,0-7.1,3.543l-.043.053-.038.043a3.8,3.8,0,0,1-.48.452l-.144.112a3.522,3.522,0,0,1-.48.287l-.077.043-.187.09a2.992,2.992,0,0,1-.36.122l-.206.053a3.23,3.23,0,0,1-.7.08h-.211a3.145,3.145,0,0,1-.48-.069.943.943,0,0,1-.283-.08,2.673,2.673,0,0,1-.293-.1l-.216-.1-.086-.048a3.53,3.53,0,0,1-.417-.266l-.125-.138a3.894,3.894,0,0,1-.432-.426l-.091-.106a9.149,9.149,0,0,0-7.108-3.527H3.4V15H6.391V40.04a1.27,1.27,0,0,0,1.2,1.33h7.458A11.016,11.016,0,0,1,23.6,45.626a1.118,1.118,0,0,0,1.693.106,1.434,1.434,0,0,0,.1-1.878,13.323,13.323,0,0,0-10.34-5.171H8.789V9.176h6.259a10.956,10.956,0,0,1,8.244,3.889V16.1a1.205,1.205,0,1,0,2.4,0V13.059A10.956,10.956,0,0,1,33.933,9.17H40.2V20.214a1.205,1.205,0,1,0,2.4,0V15H45.6V37.912a1.205,1.205,0,1,0,2.4,0V14.346a1.92,1.92,0,0,0-1.813-2.011H42.595V7.83A1.27,1.27,0,0,0,41.4,6.5H33.938A13.169,13.169,0,0,0,24.5,10.633a13.164,13.164,0,0,0-9.453-4.117H7.59a1.268,1.268,0,0,0-1.2,1.314v4.49H2.813a1.728,1.728,0,0,0-1.287.595A2.13,2.13,0,0,0,1,14.346V45.9a1.92,1.92,0,0,0,1.813,2.011Z" transform="translate(2749 3678.5)"/><path class="a" d="M59.8,43.7a10.51,10.51,0,1,0-4.53,4.53l6.817,6.817a3.205,3.205,0,1,0,4.535-4.53Zm-15.116.968a8.173,8.173,0,1,1,5.779,2.394,8.173,8.173,0,0,1-5.779-2.394Zm20.282,8.724a.888.888,0,0,1-1.225,0L57.27,46.9c.22-.187.435-.379.641-.584s.4-.421.584-.641l6.471,6.489a.865.865,0,0,1,0,1.225Z" transform="translate(2727.344 3669.316)"/></g></svg>