<svg xmlns="http://www.w3.org/2000/svg" width="37.611" height="40" viewBox="0 0 37.611 40"><defs><style>.a{fill:#0033a0;}</style></defs><path class="a" d="M70.668,83.076h0a5.435,5.435,0,0,0,3.579-1.594L88.795,66.935a1,1,0,0,0,1.263-.12l3.409-3.409.311,1.394L85.657,72.92a1,1,0,0,0,0,1.414.984.984,0,0,0,.712.291,1.027,1.027,0,0,0,.712-.291l8.512-8.512a1.024,1.024,0,0,0,.271-.932l-.712-3.168.652-.652a6.093,6.093,0,0,0,0-8.612l-.251-.251a6.093,6.093,0,0,0-8.612,0L81.2,57.952a.992.992,0,0,0-.291.712.969.969,0,0,0,.17.551L66.5,73.772a5.418,5.418,0,0,0-1.584,3.509l-.281,4.451L62.768,83.6a1,1,0,0,0,0,1.414.985.985,0,0,0,.712.291,1.027,1.027,0,0,0,.712-.291l1.7-1.7ZM88.354,53.621a4.084,4.084,0,0,1,5.775,0l.251.251a4.084,4.084,0,0,1,0,5.775l-5.033,5.033L87.371,62.7l-4.05-4.05Zm-21.445,23.8a3.464,3.464,0,0,1,1-2.226L82.469,60.639l2.446,2.446,2.446,2.446L72.824,80.068a3.422,3.422,0,0,1-2.266,1h0l-3.9.2Z" transform="translate(-62.475 -50.425)"/><path class="a" d="M131.052,272.2a1.007,1.007,0,1,0-1.985.341c.852,4.953-3.028,7.67-6.426,9.073a21.389,21.389,0,0,1-2.637.892,5.035,5.035,0,0,0-.672-.612,13.7,13.7,0,0,0-6.647-2.727,7.114,7.114,0,0,0-5.173,1.053,2.585,2.585,0,0,0-.722,3.3c.742,1.524,3.539,1.895,5.765,1.935a28.328,28.328,0,0,0,5.213-.421,21.713,21.713,0,0,1-7.309,1.865c-4.622.551-9.364.371-12.1-.471a1,1,0,0,0-.592,1.915,26.469,26.469,0,0,0,7.359.872,47.344,47.344,0,0,0,5.564-.331c3.138-.371,8.572-1.353,9.775-3.69a2.089,2.089,0,0,0,.241-.822l.9-.271a16.52,16.52,0,0,0,7.118-4.151A8.593,8.593,0,0,0,131.052,272.2Zm-17.5,11.259c-3.2.07-4.722-.521-4.933-.812a.614.614,0,0,1,.19-.872c1.133-.922,5.023-1.223,8.732,1.273A25.782,25.782,0,0,1,113.547,283.46Z" transform="translate(-93.593 -249.215)"/></svg>