<svg xmlns="http://www.w3.org/2000/svg" width="17" height="16.009" viewBox="0 0 17 16.009"><defs><style>.a{fill:#0033a0;fill-rule:evenodd;}</style></defs><path class="a" d="M10.3,4.2a1.1,1.1,0,0,1,1.1-.1.76.76,0,0,1,.5.9V19a1.149,1.149,0,0,1-.6.9.6.6,0,0,1-.4.1,1.421,1.421,0,0,1-.6-.2h0L5.6,16H2a.945.945,0,0,1-1-1V9A.945.945,0,0,1,2,8H5.6Zm-3.7,10L10,16.9V7.1L6.6,9.8A1.421,1.421,0,0,1,6,10H3v4H6A1.421,1.421,0,0,1,6.6,14.2Zm8.2-6.4a.967.967,0,0,1,1.4,0,5.917,5.917,0,0,1,0,8.5.967.967,0,0,1-1.4,0,.967.967,0,0,1,0-1.4,3.984,3.984,0,0,0,0-5.7A.967.967,0,0,1,14.8,7.8Z" transform="translate(-1 -3.991)"/></svg>