<svg xmlns="http://www.w3.org/2000/svg" width="45" height="36" viewBox="0 0 45 36"><defs><style>.a{fill:#0033a0;}</style></defs><g transform="translate(-20 -26)"><path class="a" d="M60.272,31.72H49.517V29.89A3.906,3.906,0,0,0,45.628,26H36.17a3.906,3.906,0,0,0-3.89,3.89V31.72H24.272A4.263,4.263,0,0,0,20,35.991v21.28A4.752,4.752,0,0,0,24.729,62H60.195A4.834,4.834,0,0,0,65,57.195V36.449a4.752,4.752,0,0,0-4.728-4.729ZM34.19,29.89a2.051,2.051,0,0,1,2.059-2.059H45.7a2.051,2.051,0,0,1,2.059,2.059V31.72H34.187Zm-12.356,6.1a2.409,2.409,0,0,1,2.441-2.441h31.5a2.9,2.9,0,0,1,2.9,2.9v6.56a2.978,2.978,0,0,1-2.975,2.97H43.263V44.148a2.978,2.978,0,0,0-2.974-2.974,3.029,3.029,0,0,0-2.974,2.974v1.831H24.729a2.9,2.9,0,0,1-2.9-2.9v-7.09Zm19.6,8.161V48.2a1.124,1.124,0,0,1-1.144,1.144,1.243,1.243,0,0,1-1.22-1.144V44.153a1.124,1.124,0,0,1,1.144-1.144,1.188,1.188,0,0,1,1.216,1.144ZM29.231,60.17h-4.5a2.9,2.9,0,0,1-2.9-2.9V46.746a4.924,4.924,0,0,0,2.9.989H37.237v.381a2.978,2.978,0,0,0,2.974,2.974,3.029,3.029,0,0,0,2.974-2.974v-.381H55.619a4.584,4.584,0,0,0,2.974-1.068v10.6a2.978,2.978,0,0,1-2.974,2.974H29.229Zm33.939-2.9A2.978,2.978,0,0,1,60.2,60.246h-.762A5.041,5.041,0,0,0,60.5,57.272V36.449a4.924,4.924,0,0,0-.991-2.9h.836a2.9,2.9,0,0,1,2.9,2.9V57.271Z"/></g></svg>